<?xml version="1.0" encoding="UTF-8"?>
<svg id="Calque_1" data-name="Calque 1" xmlns="http://www.w3.org/2000/svg" viewBox="0 0 595.28 297.64">
  <defs>
    <style>
      .cls-1 {
        fill: #bda05e;
      }

      .cls-2 {
        fill: #fff;
      }

      .cls-3 {
        fill: #0060a8;
      }
    </style>
  </defs>
  <rect class="cls-3" width="595.28" height="297.64"/>
  <path class="cls-1" d="M74.41,74.41c0,41.09-33.32,74.41-74.41,74.41V0c41.09,0,74.41,33.32,74.41,74.41Z"/>
  <path class="cls-1" d="M595.28,74.41c0,41.09-33.32,74.41-74.41,74.41V0c41.09,0,74.41,33.32,74.41,74.41Z"/>
  <path class="cls-2" d="M297.64,74.41c0,41.09-33.32,74.41-74.41,74.41V0c41.09,0,74.41,33.32,74.41,74.41Z"/>
  <path class="cls-2" d="M595.28,223.23c0,41.09-33.32,74.41-74.41,74.41v-148.82c41.09,0,74.41,33.32,74.41,74.41Z"/>
  <path class="cls-2" d="M446.46,74.41c0-41.09,33.32-74.41,74.41-74.41v148.82c-41.09,0-74.41-33.32-74.41-74.41Z"/>
  <path class="cls-1" d="M148.82,223.23c0,41.09-33.32,74.41-74.41,74.41v-148.82c41.09,0,74.41,33.32,74.41,74.41Z"/>
  <path class="cls-1" d="M372.05,223.23c0,41.09-33.32,74.41-74.41,74.41v-148.82c41.09,0,74.41,33.32,74.41,74.41Z"/>
  <circle class="cls-1" cx="446.46" cy="223.23" r="74.41"/>
  <circle class="cls-1" cx="148.82" cy="74.41" r="74.41"/>
  <rect class="cls-1" x="297.64" y="0" width="148.82" height="148.82"/>
  <rect class="cls-2" y="148.82" width="74.41" height="148.82"/>
  <rect class="cls-1" x="148.82" y="148.82" width="148.82" height="148.82"/>
  <circle class="cls-2" cx="223.23" cy="223.23" r="74.41"/>
</svg>