<?xml version="1.0" encoding="UTF-8"?>
<svg id="Repères" xmlns="http://www.w3.org/2000/svg" version="1.1" viewBox="0 0 608.8 86.9">
  <!-- Generator: Adobe Illustrator 30.2.1, SVG Export Plug-In . SVG Version: 2.1.1 Build 1)  -->
  <defs>
    <style>
      .st0 {
        fill: #bda05e;
      }

      .st1 {
        font-family: Helvetica, Helvetica;
        font-size: 38.6px;
      }

      .st1, .st2 {
        isolation: isolate;
      }

      .st1, .st3 {
        fill: #fff;
      }

      .st4 {
        fill: none;
        stroke: #fff;
        stroke-miterlimit: 10;
        stroke-width: 2px;
      }
    </style>
  </defs>
  <path class="st0" d="M80.7,0v41.1c-1.4,16.3-15.2,30-34.1,35.5V0h34.1Z"/>
  <path class="st3" d="M34.2,10.2h0v76.6C15.7,81.4,1.5,67.8.1,51.4c0-.9-.1-1.9-.1-2.8s0-1.9.1-2.8C1.5,29.5,15.7,15.7,34.2,10.2"/>
  <path class="st3" d="M127.3,10.2h0v76.6c-18.5-5.5-32.7-19.1-34.1-35.4v-5.6c1.4-16.4,15.6-30.1,34.1-35.6"/>
  <polygon class="st3" points="177.5 10.2 177.5 48.6 159.4 48.6 159.4 86.9 139.6 86.9 139.6 10.2 177.5 10.2"/>
  <polygon class="st3" points="226.6 29.3 226.6 67.8 206.7 67.8 206.7 86.9 186.9 86.9 186.9 10.2 206.7 10.2 206.7 29.3 226.6 29.3"/>
  <path class="st0" d="M93.1,78.1c0-4.8-3.9-8.8-8.8-8.8s-8.8,3.9-8.8,8.8,3.9,8.8,8.8,8.8,8.8-3.9,8.8-8.8"/>
  <g>
    <g class="st2">
      <g class="st2">
        <text class="st1" transform="translate(260 38.8)"><tspan x="0" y="0">Communau</tspan></text>
      </g>
      <g class="st2">
        <text class="st1" transform="translate(456.1 38.8)"><tspan x="0" y="0">t</tspan></text>
      </g>
      <g class="st2">
        <text class="st1" transform="translate(466.3 38.8)"><tspan x="0" y="0">é</tspan></text>
      </g>
      <g class="st2">
        <text class="st1" transform="translate(497.6 38.8)"><tspan x="0" y="0">Jui</tspan></text>
      </g>
      <g class="st2">
        <text class="st1" transform="translate(545.4 38.8)"><tspan x="0" y="0">v</tspan></text>
      </g>
      <g class="st2">
        <text class="st1" transform="translate(564.2 38.8)"><tspan x="0" y="0">e</tspan></text>
      </g>
    </g>
    <g class="st2">
      <g class="st2">
        <text class="st1" transform="translate(261.7 86.1)"><tspan x="0" y="0">de</tspan></text>
      </g>
      <g class="st2">
        <text class="st1" transform="translate(314 86.1)"><tspan x="0" y="0">Clermon</tspan></text>
      </g>
      <g class="st2">
        <text class="st1" transform="translate(456.6 86.1)"><tspan x="0" y="0">t</tspan></text>
      </g>
      <g class="st2">
        <text class="st1" transform="translate(466.9 86.1)"><tspan x="0" y="0">-</tspan></text>
      </g>
      <g class="st2">
        <text class="st1" transform="translate(479.2 86.1)"><tspan x="0" y="0">F</tspan></text>
      </g>
      <g class="st2">
        <text class="st1" transform="translate(502.3 86.1)"><tspan x="0" y="0">erran</tspan></text>
      </g>
      <g class="st2">
        <text class="st1" transform="translate(590 86.1)"><tspan x="0" y="0">d</tspan></text>
      </g>
    </g>
  </g>
  <line class="st4" x1="243.3" y1="10.2" x2="243.3" y2="86.9"/>
</svg>