<?xml version="1.0" encoding="UTF-8"?>
<svg id="Repères" xmlns="http://www.w3.org/2000/svg" version="1.1" viewBox="0 0 654.2 86.9">
  <!-- Generator: Adobe Illustrator 30.2.1, SVG Export Plug-In . SVG Version: 2.1.1 Build 1)  -->
  <defs>
    <style>
      .st0 {
        fill: #bda05e;
      }

      .st1 {
        fill: #fff;
      }

      .st2 {
        fill: none;
        stroke: #fff;
        stroke-miterlimit: 10;
        stroke-width: 2px;
      }
    </style>
  </defs>
  <path class="st0" d="M80.7,0v41.1c-1.4,16.3-15.2,30-34.1,35.5V0h34.1Z"/>
  <path class="st1" d="M34.2,10.2h0v76.6C15.7,81.4,1.5,67.8.1,51.4c0-.9-.1-1.9-.1-2.8s0-1.9.1-2.8C1.5,29.5,15.7,15.7,34.2,10.2"/>
  <path class="st1" d="M127.3,10.2h0v76.6c-18.5-5.5-32.7-19.1-34.1-35.4v-5.6c1.4-16.4,15.6-30.1,34.1-35.6"/>
  <polygon class="st1" points="177.5 10.2 177.5 48.6 159.4 48.6 159.4 86.9 139.6 86.9 139.6 10.2 177.5 10.2"/>
  <polygon class="st1" points="226.6 29.3 226.6 67.8 206.7 67.8 206.7 86.9 186.9 86.9 186.9 10.2 206.7 10.2 206.7 29.3 226.6 29.3"/>
  <path class="st0" d="M93.1,78.1c0-4.8-3.9-8.8-8.8-8.8s-8.8,3.9-8.8,8.8,3.9,8.8,8.8,8.8,8.8-3.9,8.8-8.8"/>
  <line class="st2" x1="243.3" y1="10.2" x2="243.3" y2="86.9"/>
  <g>
    <path class="st1" d="M284.3,21.4h-4.3c-.2-.9-.5-1.7-.9-2.4-.4-.7-1-1.3-1.6-1.8-.6-.5-1.4-.8-2.2-1.1-.8-.2-1.6-.4-2.5-.4-1.6,0-3.1.4-4.3,1.2-1.3.8-2.3,2-3,3.6-.7,1.6-1.1,3.5-1.1,5.7s.4,4.2,1.1,5.8c.7,1.6,1.7,2.7,3,3.6,1.3.8,2.7,1.2,4.3,1.2s1.7-.1,2.5-.4,1.5-.6,2.2-1.1c.6-.5,1.2-1.1,1.6-1.7.5-.7.8-1.5.9-2.4h4.3c-.2,1.4-.7,2.7-1.3,3.8s-1.5,2.1-2.5,3c-1,.8-2.2,1.5-3.5,1.9s-2.7.7-4.3.7c-2.4,0-4.6-.6-6.5-1.7s-3.4-2.8-4.5-5-1.6-4.7-1.6-7.7.5-5.6,1.6-7.7,2.6-3.8,4.5-4.9c1.9-1.2,4-1.7,6.5-1.7s2.9.2,4.2.6c1.3.4,2.4,1,3.5,1.9,1,.8,1.9,1.8,2.6,3,.7,1.2,1.1,2.5,1.4,4Z"/>
    <path class="st1" d="M298.7,40.7c-2,0-3.7-.5-5.1-1.4s-2.6-2.2-3.4-3.8-1.2-3.5-1.2-5.7.4-4.1,1.2-5.7c.8-1.6,1.9-2.9,3.4-3.8,1.5-.9,3.2-1.4,5.1-1.4s3.7.5,5.1,1.4c1.5.9,2.6,2.2,3.4,3.8.8,1.6,1.2,3.5,1.2,5.7s-.4,4.1-1.2,5.7-1.9,2.9-3.4,3.8-3.2,1.4-5.1,1.4ZM298.7,37.3c1.3,0,2.3-.3,3.2-1,.8-.7,1.5-1.6,1.9-2.7.4-1.1.6-2.4.6-3.7s-.2-2.6-.6-3.7c-.4-1.1-1-2-1.9-2.7-.8-.7-1.9-1-3.2-1s-2.3.3-3.2,1c-.8.7-1.5,1.6-1.9,2.7-.4,1.1-.6,2.4-.6,3.7s.2,2.6.6,3.7c.4,1.1,1,2,1.9,2.7.8.7,1.9,1,3.2,1Z"/>
    <path class="st1" d="M313.8,40.3v-21h3.9v3.4h.3c.4-1.2,1.2-2.1,2.1-2.7,1-.7,2.2-1,3.6-1s2.6.3,3.5,1c1,.7,1.7,1.6,2.1,2.7h.2c.5-1.1,1.3-2,2.4-2.7s2.4-1,3.9-1,3.5.6,4.7,1.8c1.2,1.2,1.8,3,1.8,5.4v14.1h-4.1v-13.7c0-1.4-.4-2.4-1.2-3.1-.8-.6-1.7-1-2.8-1s-2.4.4-3.1,1.2c-.7.8-1.1,1.9-1.1,3.1v13.4h-4.1v-13.9c0-1.1-.4-2.1-1.1-2.7-.7-.7-1.6-1-2.8-1s-1.5.2-2.1.6-1.2,1-1.6,1.7c-.4.7-.6,1.6-.6,2.5v12.9h-4.1Z"/>
    <path class="st1" d="M348.5,40.3v-21h3.9v3.4h.3c.4-1.2,1.2-2.1,2.1-2.7,1-.7,2.2-1,3.6-1s2.6.3,3.5,1c1,.7,1.7,1.6,2.1,2.7h.2c.5-1.1,1.3-2,2.4-2.7s2.4-1,3.9-1,3.5.6,4.7,1.8c1.2,1.2,1.8,3,1.8,5.4v14.1h-4.1v-13.7c0-1.4-.4-2.4-1.2-3.1-.8-.6-1.7-1-2.8-1s-2.4.4-3.1,1.2c-.7.8-1.1,1.9-1.1,3.1v13.4h-4.1v-13.9c0-1.1-.4-2.1-1.1-2.7-.7-.7-1.6-1-2.8-1s-1.5.2-2.1.6-1.2,1-1.6,1.7c-.4.7-.6,1.6-.6,2.5v12.9h-4.1Z"/>
    <path class="st1" d="M396.5,31.6v-12.3h4.1v21h-4v-3.6h-.2c-.5,1.1-1.3,2-2.3,2.8-1.1.7-2.4,1.1-4,1.1s-2.5-.3-3.6-.9-1.8-1.5-2.4-2.7c-.6-1.2-.9-2.6-.9-4.4v-13.3h4.1v12.9c0,1.4.4,2.6,1.2,3.4.8.8,1.8,1.3,3.1,1.3s1.5-.2,2.3-.6,1.4-1,1.9-1.7c.5-.8.8-1.8.7-2.9Z"/>
    <path class="st1" d="M411,27.8v12.5h-4.1v-21h3.9v3.4h.3c.5-1.1,1.2-2,2.3-2.7,1-.7,2.3-1,3.9-1s2.7.3,3.8.9c1.1.6,1.9,1.5,2.5,2.7.6,1.2.9,2.6.9,4.4v13.3h-4.1v-12.9c0-1.5-.4-2.7-1.2-3.6s-1.9-1.3-3.3-1.3-1.8.2-2.5.6c-.7.4-1.3,1-1.7,1.8-.4.8-.6,1.7-.6,2.8Z"/>
    <path class="st1" d="M436.7,40.7c-1.3,0-2.5-.2-3.6-.7-1.1-.5-1.9-1.2-2.5-2.2-.6-.9-.9-2.1-.9-3.5s.2-2.2.7-2.9,1.1-1.4,1.8-1.8c.8-.4,1.6-.8,2.6-1,1-.2,1.9-.4,2.9-.5,1.3-.1,2.3-.3,3.1-.4.8,0,1.4-.3,1.7-.5.4-.2.5-.6.5-1.1h0c0-1.3-.3-2.2-1-2.9-.7-.7-1.7-1-3-1s-2.5.3-3.2.9-1.3,1.3-1.6,2l-3.8-.9c.5-1.3,1.1-2.3,2-3.1s1.9-1.4,3-1.7c1.1-.4,2.4-.5,3.6-.5s1.7,0,2.7.3c.9.2,1.8.6,2.6,1.1.8.5,1.5,1.3,2,2.2.5,1,.8,2.2.8,3.7v13.9h-4v-2.9h-.2c-.3.5-.7,1-1.2,1.6s-1.2.9-2,1.3c-.8.3-1.8.5-3,.5ZM437.6,37.5c1.1,0,2.1-.2,2.9-.7.8-.4,1.4-1,1.8-1.8s.6-1.5.6-2.3v-2.7c-.1.1-.4.3-.8.4-.4.1-.9.2-1.4.3-.5,0-1,.2-1.5.2-.5,0-.9.1-1.3.2-.8.1-1.5.3-2.2.5-.7.2-1.2.6-1.6,1-.4.4-.6,1-.6,1.8s.4,1.8,1.1,2.3c.7.5,1.7.8,2.9.8Z"/>
    <path class="st1" d="M466.6,31.6v-12.3h4.1v21h-4v-3.6h-.2c-.5,1.1-1.3,2-2.3,2.8-1.1.7-2.4,1.1-4,1.1s-2.5-.3-3.6-.9-1.8-1.5-2.4-2.7c-.6-1.2-.9-2.6-.9-4.4v-13.3h4.1v12.9c0,1.4.4,2.6,1.2,3.4s1.8,1.3,3.1,1.3,1.5-.2,2.3-.6c.8-.4,1.4-1,1.9-1.7.5-.8.8-1.8.7-2.9Z"/>
    <path class="st1" d="M486.7,19.3v3.3h-11.5v-3.3h11.5ZM478.3,14.3h4.1v19.8c0,.8.1,1.4.4,1.8.2.4.5.7.9.8s.8.2,1.2.2.6,0,.9,0c.2,0,.4,0,.6-.1l.7,3.4c-.2,0-.6.2-1,.3-.4,0-1,.1-1.6.2-1.1,0-2.1-.2-3-.6-.9-.4-1.7-1-2.3-1.9-.6-.8-.9-1.9-.9-3.2V14.3Z"/>
    <path class="st1" d="M500.8,40.7c-2.1,0-3.8-.4-5.3-1.3s-2.6-2.1-3.4-3.8-1.2-3.5-1.2-5.7.4-4,1.2-5.7,1.9-2.9,3.4-3.8c1.5-.9,3.2-1.4,5.1-1.4s2.3.2,3.4.6c1.1.4,2.1,1,3,1.8.9.8,1.6,1.9,2.1,3.3.5,1.3.8,3,.8,4.9v1.4h-16.7v-3.1h12.7c0-1.1-.2-2-.7-2.9-.4-.8-1-1.5-1.8-2-.8-.5-1.7-.7-2.8-.7s-2.1.3-3,.8-1.5,1.3-2,2.2c-.5.9-.7,1.9-.7,2.9v2.4c0,1.4.2,2.6.7,3.6.5,1,1.2,1.7,2.1,2.2.9.5,1.9.8,3.1.8s1.5-.1,2.1-.3,1.2-.6,1.7-1c.5-.4.8-1,1.1-1.7l3.9.7c-.3,1.1-.9,2.1-1.7,3-.8.9-1.8,1.5-3,2-1.2.5-2.6.7-4.1.7ZM498.7,16.5l3.2-6.3h4.3l-4.2,6.3h-3.3Z"/>
    <path class="st1" d="M537.3,12.3h4.2v19.8c0,1.8-.4,3.3-1.1,4.6-.7,1.3-1.7,2.2-3,2.9s-2.8,1-4.5,1-3-.3-4.2-.9c-1.3-.6-2.2-1.4-3-2.5s-1.1-2.4-1.1-4h4.2c0,.8.2,1.4.5,2,.4.6.9,1,1.5,1.3.6.3,1.4.5,2.2.5s1.7-.2,2.3-.6,1.1-.9,1.4-1.7c.3-.7.5-1.6.5-2.7V12.3Z"/>
    <path class="st1" d="M561.3,31.6v-12.3h4.1v21h-4v-3.6h-.2c-.5,1.1-1.3,2-2.3,2.8-1.1.7-2.4,1.1-4,1.1s-2.5-.3-3.6-.9-1.8-1.5-2.4-2.7c-.6-1.2-.9-2.6-.9-4.4v-13.3h4.1v12.9c0,1.4.4,2.6,1.2,3.4.8.8,1.8,1.3,3.1,1.3s1.5-.2,2.3-.6c.8-.4,1.4-1,1.9-1.7s.8-1.8.7-2.9Z"/>
    <path class="st1" d="M573.8,16.1c-.7,0-1.3-.2-1.8-.7-.5-.5-.8-1-.8-1.7s.3-1.3.8-1.7c.5-.5,1.1-.7,1.8-.7s1.3.2,1.8.7c.5.5.8,1,.8,1.7s-.3,1.2-.8,1.7-1.1.7-1.8.7ZM571.7,40.3v-21h4.1v21h-4.1Z"/>
    <path class="st1" d="M600,19.3l-7.6,21h-4.4l-7.6-21h4.4l5.3,16.1h.2l5.3-16.1h4.4Z"/>
    <path class="st1" d="M612.9,40.7c-2.1,0-3.8-.4-5.3-1.3s-2.6-2.1-3.4-3.8-1.2-3.5-1.2-5.7.4-4,1.2-5.7,1.9-2.9,3.4-3.8c1.5-.9,3.2-1.4,5.1-1.4s2.3.2,3.4.6,2.1,1,3,1.8c.9.8,1.6,1.9,2.1,3.3.5,1.3.8,3,.8,4.9v1.4h-16.7v-3.1h12.7c0-1.1-.2-2-.7-2.9-.4-.8-1-1.5-1.8-2-.8-.5-1.7-.7-2.8-.7s-2.1.3-3,.8-1.5,1.3-2,2.2c-.5.9-.7,1.9-.7,2.9v2.4c0,1.4.2,2.6.7,3.6.5,1,1.2,1.7,2.1,2.2.9.5,1.9.8,3.1.8s1.5-.1,2.1-.3,1.2-.6,1.7-1,.8-1,1.1-1.7l3.9.7c-.3,1.1-.9,2.1-1.7,3-.8.9-1.8,1.5-3,2-1.2.5-2.6.7-4.1.7Z"/>
    <path class="st1" d="M268.6,86.8c-1.7,0-3.2-.4-4.5-1.3-1.3-.9-2.4-2.1-3.1-3.7-.8-1.6-1.1-3.6-1.1-5.8s.4-4.2,1.1-5.8c.8-1.6,1.8-2.8,3.1-3.7,1.3-.9,2.8-1.3,4.5-1.3s2.4.2,3.1.6,1.4.9,1.9,1.5.8,1.1,1,1.5h.2v-10.4h4.1v28h-4v-3.3h-.3c-.2.4-.6,1-1.1,1.5-.5.6-1.1,1.1-1.9,1.5-.8.4-1.8.6-3.1.6ZM269.5,83.3c1.2,0,2.2-.3,3-.9.8-.6,1.4-1.5,1.9-2.6.4-1.1.6-2.4.6-3.9s-.2-2.7-.6-3.8-1-1.9-1.8-2.6-1.8-.9-3-.9-2.3.3-3.1,1-1.4,1.5-1.9,2.6c-.4,1.1-.6,2.3-.6,3.7s.2,2.7.6,3.8,1,2,1.9,2.7c.8.7,1.8,1,3.1,1Z"/>
    <path class="st1" d="M294.7,86.8c-2.1,0-3.8-.4-5.3-1.3-1.5-.9-2.6-2.1-3.4-3.8-.8-1.6-1.2-3.5-1.2-5.7s.4-4,1.2-5.7c.8-1.6,1.9-2.9,3.4-3.8s3.2-1.4,5.1-1.4,2.3.2,3.4.6c1.1.4,2.1,1,3,1.8.9.8,1.6,1.9,2.1,3.3.5,1.3.8,3,.8,4.9v1.4h-16.7v-3.1h12.7c0-1.1-.2-2-.7-2.9-.4-.8-1-1.5-1.8-2s-1.7-.7-2.8-.7-2.1.3-3,.8c-.9.6-1.5,1.3-2,2.2-.5.9-.7,1.9-.7,2.9v2.4c0,1.4.2,2.6.7,3.6s1.2,1.7,2.1,2.2,1.9.8,3.1.8,1.5-.1,2.1-.3c.6-.2,1.2-.6,1.7-1,.5-.4.8-1,1.1-1.7l3.9.7c-.3,1.1-.9,2.1-1.7,3-.8.9-1.8,1.5-3,2-1.2.5-2.6.7-4.1.7Z"/>
    <path class="st1" d="M343.5,67.5h-4.3c-.2-.9-.5-1.7-.9-2.4-.4-.7-1-1.3-1.6-1.8-.6-.5-1.4-.8-2.2-1.1-.8-.2-1.6-.4-2.5-.4-1.6,0-3.1.4-4.3,1.2s-2.3,2-3,3.6c-.7,1.6-1.1,3.5-1.1,5.7s.4,4.2,1.1,5.8c.7,1.6,1.7,2.7,3,3.6,1.3.8,2.7,1.2,4.3,1.2s1.7-.1,2.5-.4,1.5-.6,2.2-1.1c.6-.5,1.2-1.1,1.6-1.7.5-.7.8-1.5.9-2.4h4.3c-.2,1.4-.7,2.7-1.3,3.8-.7,1.2-1.5,2.1-2.5,3-1,.8-2.2,1.5-3.5,1.9-1.3.5-2.7.7-4.3.7-2.4,0-4.6-.6-6.5-1.7s-3.4-2.8-4.5-5c-1.1-2.1-1.6-4.7-1.6-7.7s.5-5.6,1.6-7.7c1.1-2.1,2.6-3.8,4.5-4.9,1.9-1.2,4-1.7,6.5-1.7s2.9.2,4.2.6c1.3.4,2.4,1,3.5,1.9,1,.8,1.9,1.8,2.6,3s1.1,2.5,1.4,4Z"/>
    <path class="st1" d="M353.1,58.5v28h-4.1v-28h4.1Z"/>
    <path class="st1" d="M368.4,86.8c-2.1,0-3.8-.4-5.3-1.3-1.5-.9-2.6-2.1-3.4-3.8-.8-1.6-1.2-3.5-1.2-5.7s.4-4,1.2-5.7c.8-1.6,1.9-2.9,3.4-3.8s3.2-1.4,5.1-1.4,2.3.2,3.4.6c1.1.4,2.1,1,3,1.8.9.8,1.6,1.9,2.1,3.3.5,1.3.8,3,.8,4.9v1.4h-16.7v-3.1h12.7c0-1.1-.2-2-.7-2.9-.4-.8-1-1.5-1.8-2s-1.7-.7-2.8-.7-2.1.3-3,.8c-.9.6-1.5,1.3-2,2.2-.5.9-.7,1.9-.7,2.9v2.4c0,1.4.2,2.6.7,3.6s1.2,1.7,2.1,2.2,1.9.8,3.1.8,1.5-.1,2.1-.3c.6-.2,1.2-.6,1.7-1,.5-.4.8-1,1.1-1.7l3.9.7c-.3,1.1-.9,2.1-1.7,3-.8.9-1.8,1.5-3,2-1.2.5-2.6.7-4.1.7Z"/>
    <path class="st1" d="M382.7,86.4v-21h3.9v3.3h.2c.4-1.1,1.1-2,2-2.7,1-.7,2.1-1,3.3-1s.6,0,.9,0c.4,0,.6,0,.8,0v3.9c-.2,0-.5,0-.9-.2-.4,0-.8,0-1.3,0-1,0-1.8.2-2.6.6s-1.3,1-1.8,1.7c-.4.7-.7,1.5-.7,2.4v12.8h-4.1Z"/>
    <path class="st1" d="M398.2,86.4v-21h3.9v3.4h.3c.4-1.2,1.2-2.1,2.1-2.7s2.2-1,3.6-1,2.6.3,3.5,1,1.7,1.6,2.1,2.7h.2c.5-1.1,1.3-2,2.4-2.7,1.1-.7,2.4-1,3.9-1s3.5.6,4.7,1.8c1.2,1.2,1.8,3,1.8,5.4v14.1h-4.1v-13.7c0-1.4-.4-2.4-1.2-3.1-.8-.6-1.7-1-2.8-1s-2.4.4-3.1,1.2-1.1,1.9-1.1,3.1v13.4h-4.1v-13.9c0-1.1-.4-2.1-1.1-2.7-.7-.7-1.6-1-2.8-1s-1.5.2-2.1.6c-.7.4-1.2,1-1.6,1.7-.4.7-.6,1.6-.6,2.5v12.9h-4.1Z"/>
    <path class="st1" d="M441.8,86.8c-2,0-3.7-.5-5.1-1.4-1.5-.9-2.6-2.2-3.4-3.8-.8-1.6-1.2-3.5-1.2-5.7s.4-4.1,1.2-5.7,1.9-2.9,3.4-3.8c1.5-.9,3.2-1.4,5.1-1.4s3.7.4,5.1,1.4c1.5.9,2.6,2.2,3.4,3.8s1.2,3.5,1.2,5.7-.4,4.1-1.2,5.7c-.8,1.6-1.9,2.9-3.4,3.8-1.5.9-3.2,1.4-5.1,1.4ZM441.8,83.4c1.3,0,2.3-.3,3.2-1,.8-.7,1.5-1.6,1.9-2.7s.6-2.4.6-3.7-.2-2.6-.6-3.7-1-2-1.9-2.7c-.8-.7-1.9-1-3.2-1s-2.3.3-3.2,1c-.8.7-1.5,1.6-1.9,2.7s-.6,2.4-.6,3.7.2,2.6.6,3.7,1,2,1.9,2.7c.8.7,1.9,1,3.2,1Z"/>
    <path class="st1" d="M461,74v12.5h-4.1v-21h3.9v3.4h.3c.5-1.1,1.2-2,2.3-2.7s2.3-1,3.9-1,2.7.3,3.8.9c1.1.6,1.9,1.5,2.5,2.7s.9,2.6.9,4.4v13.3h-4.1v-12.9c0-1.5-.4-2.7-1.2-3.6-.8-.9-1.9-1.3-3.3-1.3s-1.8.2-2.5.6c-.7.4-1.3,1-1.7,1.8-.4.8-.6,1.7-.6,2.8Z"/>
    <path class="st1" d="M490.4,65.4v3.3h-11.5v-3.3h11.5ZM482,60.4h4.1v19.8c0,.8.1,1.4.4,1.8.2.4.5.7.9.8.4.1.8.2,1.2.2s.6,0,.9,0c.2,0,.4,0,.6-.1l.7,3.4c-.2,0-.6.2-1,.3-.4,0-1,.1-1.6.2-1.1,0-2.1-.2-3-.6-.9-.4-1.7-1-2.3-1.9-.6-.8-.9-1.9-.9-3.2v-20.7Z"/>
    <path class="st1" d="M507.3,72.8v3.5h-12.4v-3.5h12.4Z"/>
    <path class="st1" d="M513.9,86.4v-28h17.3v3.6h-13.1v8.5h11.9v3.6h-11.9v12.2h-4.2Z"/>
    <path class="st1" d="M544.4,86.8c-2.1,0-3.8-.4-5.3-1.3-1.5-.9-2.6-2.1-3.4-3.8-.8-1.6-1.2-3.5-1.2-5.7s.4-4,1.2-5.7c.8-1.6,1.9-2.9,3.4-3.8,1.5-.9,3.2-1.4,5.1-1.4s2.3.2,3.4.6c1.1.4,2.1,1,3,1.8.9.8,1.6,1.9,2.1,3.3.5,1.3.8,3,.8,4.9v1.4h-16.7v-3.1h12.7c0-1.1-.2-2-.7-2.9-.4-.8-1-1.5-1.8-2-.8-.5-1.7-.7-2.8-.7s-2.1.3-3,.8c-.9.6-1.5,1.3-2,2.2-.5.9-.7,1.9-.7,2.9v2.4c0,1.4.2,2.6.7,3.6s1.2,1.7,2.1,2.2,1.9.8,3.1.8,1.5-.1,2.1-.3c.6-.2,1.2-.6,1.7-1,.5-.4.8-1,1.1-1.7l3.9.7c-.3,1.1-.9,2.1-1.7,3s-1.8,1.5-3,2c-1.2.5-2.6.7-4.1.7Z"/>
    <path class="st1" d="M558.7,86.4v-21h3.9v3.3h.2c.4-1.1,1.1-2,2-2.7,1-.7,2.1-1,3.3-1s.6,0,.9,0c.4,0,.6,0,.8,0v3.9c-.2,0-.5,0-.9-.2-.4,0-.8,0-1.3,0-1,0-1.8.2-2.6.6s-1.3,1-1.8,1.7c-.4.7-.7,1.5-.7,2.4v12.8h-4.1Z"/>
    <path class="st1" d="M574.2,86.4v-21h3.9v3.3h.2c.4-1.1,1.1-2,2-2.7s2.1-1,3.3-1,.6,0,.9,0c.4,0,.6,0,.8,0v3.9c-.2,0-.5,0-.9-.2-.4,0-.8,0-1.3,0-1,0-1.8.2-2.6.6s-1.3,1-1.8,1.7c-.4.7-.7,1.5-.7,2.4v12.8h-4.1Z"/>
    <path class="st1" d="M595.7,86.9c-1.3,0-2.5-.2-3.6-.7s-1.9-1.2-2.5-2.2c-.6-.9-.9-2.1-.9-3.5s.2-2.2.7-2.9,1.1-1.4,1.8-1.8c.8-.4,1.6-.8,2.6-1,1-.2,1.9-.4,2.9-.5,1.3-.1,2.3-.3,3.1-.4.8,0,1.4-.3,1.7-.5.4-.2.5-.6.5-1.1h0c0-1.3-.3-2.2-1-2.9-.7-.7-1.7-1-3-1s-2.5.3-3.2.9-1.3,1.3-1.6,2l-3.8-.9c.5-1.3,1.1-2.3,2-3.1.9-.8,1.9-1.4,3-1.7s2.4-.5,3.6-.5,1.7,0,2.7.3c.9.2,1.8.6,2.6,1.1s1.5,1.3,2,2.2c.5,1,.8,2.2.8,3.7v13.9h-4v-2.9h-.2c-.3.5-.7,1-1.2,1.6s-1.2.9-2,1.3c-.8.3-1.8.5-3,.5ZM596.6,83.6c1.1,0,2.1-.2,2.9-.7.8-.4,1.4-1,1.8-1.8s.6-1.5.6-2.3v-2.7c-.1.1-.4.3-.8.4-.4.1-.9.2-1.4.3-.5,0-1,.2-1.5.2-.5,0-.9.1-1.3.2-.8,0-1.5.3-2.2.5s-1.2.6-1.6,1c-.4.4-.6,1-.6,1.8s.4,1.8,1.1,2.3c.7.5,1.7.8,2.9.8Z"/>
    <path class="st1" d="M616.3,74v12.5h-4.1v-21h3.9v3.4h.3c.5-1.1,1.2-2,2.3-2.7s2.3-1,3.9-1,2.7.3,3.8.9c1.1.6,1.9,1.5,2.5,2.7s.9,2.6.9,4.4v13.3h-4.1v-12.9c0-1.5-.4-2.7-1.2-3.6-.8-.9-1.9-1.3-3.3-1.3s-1.8.2-2.5.6c-.7.4-1.3,1-1.7,1.8-.4.8-.6,1.7-.6,2.8Z"/>
    <path class="st1" d="M643.8,86.8c-1.7,0-3.2-.4-4.5-1.3-1.3-.9-2.4-2.1-3.1-3.7-.8-1.6-1.1-3.6-1.1-5.8s.4-4.2,1.1-5.8c.8-1.6,1.8-2.8,3.1-3.7,1.3-.9,2.8-1.3,4.5-1.3s2.4.2,3.1.6,1.4.9,1.9,1.5.8,1.1,1,1.5h.2v-10.4h4.1v28h-4v-3.3h-.3c-.2.4-.6,1-1.1,1.5-.5.6-1.1,1.1-1.9,1.5-.8.4-1.8.6-3.1.6ZM644.7,83.3c1.2,0,2.2-.3,3-.9.8-.6,1.4-1.5,1.9-2.6.4-1.1.6-2.4.6-3.9s-.2-2.7-.6-3.8c-.4-1.1-1-1.9-1.8-2.6s-1.8-.9-3-.9-2.3.3-3.1,1-1.4,1.5-1.9,2.6c-.4,1.1-.6,2.3-.6,3.7s.2,2.7.6,3.8c.4,1.1,1,2,1.9,2.7.8.7,1.8,1,3.1,1Z"/>
  </g>
</svg>