<?xml version="1.0" encoding="UTF-8"?>
<svg id="Repères" xmlns="http://www.w3.org/2000/svg" viewBox="0 0 654.23 86.9">
  <defs>
    <style>
      .cls-1 {
        fill: #bda05e;
      }

      .cls-2 {
        fill: #fff;
      }

      .cls-3 {
        fill: none;
        stroke: #fff;
        stroke-miterlimit: 10;
        stroke-width: 2px;
      }
    </style>
  </defs>
  <path class="cls-1" d="M80.7,0v41.1c-1.4,16.3-15.2,30-34.1,35.5V0h34.1Z"/>
  <path class="cls-2" d="M34.2,10.2h0v76.6C15.7,81.4,1.5,67.8.1,51.4c0-.9-.1-1.9-.1-2.8s0-1.9.1-2.8C1.5,29.5,15.7,15.7,34.2,10.2"/>
  <path class="cls-2" d="M127.3,10.2h0v76.6c-18.5-5.5-32.7-19.1-34.1-35.4v-5.6c1.4-16.4,15.6-30.1,34.1-35.6"/>
  <polygon class="cls-2" points="177.5 10.2 177.5 48.6 159.4 48.6 159.4 86.9 139.6 86.9 139.6 10.2 177.5 10.2"/>
  <polygon class="cls-2" points="226.6 29.3 226.6 67.8 206.7 67.8 206.7 86.9 186.9 86.9 186.9 10.2 206.7 10.2 206.7 29.3 226.6 29.3"/>
  <path class="cls-1" d="M93.1,78.1c0-4.8-3.9-8.8-8.8-8.8s-8.8,3.9-8.8,8.8,3.9,8.8,8.8,8.8,8.8-3.9,8.8-8.8"/>
  <line class="cls-3" x1="243.3" y1="10.2" x2="243.3" y2="86.9"/>
  <g>
    <path class="cls-2" d="M284.34,21.4h-4.26c-.16-.91-.47-1.71-.91-2.4-.45-.69-.99-1.28-1.64-1.76-.65-.48-1.37-.85-2.16-1.09-.8-.25-1.64-.37-2.53-.37-1.61,0-3.05.4-4.32,1.21-1.27.81-2.27,2-3,3.56-.73,1.57-1.1,3.48-1.1,5.74s.37,4.2,1.1,5.76c.73,1.57,1.74,2.75,3.01,3.55,1.27.8,2.71,1.2,4.3,1.2.88,0,1.72-.12,2.52-.36s1.52-.6,2.16-1.07c.65-.47,1.19-1.05,1.65-1.74.45-.69.76-1.48.94-2.37h4.26c-.23,1.39-.67,2.65-1.32,3.8s-1.48,2.14-2.5,2.98c-1.02.83-2.17,1.48-3.48,1.93s-2.72.68-4.26.68c-2.42,0-4.58-.58-6.47-1.73s-3.38-2.8-4.47-4.95-1.63-4.71-1.63-7.69.55-5.55,1.64-7.7,2.59-3.79,4.48-4.94c1.89-1.15,4.05-1.73,6.46-1.73,1.48,0,2.87.21,4.16.64,1.29.42,2.45,1.04,3.48,1.86,1.03.82,1.88,1.81,2.55,2.98.67,1.17,1.13,2.51,1.37,4.01Z"/>
    <path class="cls-2" d="M298.67,40.7c-1.97,0-3.68-.45-5.15-1.35s-2.6-2.16-3.41-3.78-1.22-3.51-1.22-5.68.4-4.08,1.22-5.71c.81-1.63,1.95-2.9,3.41-3.8,1.47-.9,3.18-1.35,5.15-1.35s3.68.45,5.15,1.35c1.47.9,2.6,2.17,3.41,3.8.81,1.63,1.22,3.53,1.22,5.71s-.41,4.06-1.22,5.68-1.95,2.88-3.41,3.78-3.18,1.35-5.15,1.35ZM298.68,37.27c1.27,0,2.33-.34,3.17-1.01.84-.67,1.46-1.57,1.86-2.69.4-1.12.61-2.35.61-3.7s-.2-2.57-.61-3.69c-.41-1.12-1.03-2.03-1.86-2.71-.84-.68-1.89-1.02-3.17-1.02s-2.35.34-3.19,1.02c-.84.68-1.47,1.59-1.87,2.71-.41,1.12-.61,2.36-.61,3.69s.2,2.58.61,3.7c.4,1.12,1.03,2.02,1.87,2.69.84.67,1.9,1.01,3.19,1.01Z"/>
    <path class="cls-2" d="M313.76,40.27v-20.98h3.92v3.41h.26c.44-1.16,1.15-2.06,2.14-2.71.99-.65,2.18-.98,3.56-.98s2.58.33,3.53.98c.95.66,1.65,1.56,2.11,2.7h.22c.5-1.12,1.3-2.01,2.39-2.68s2.39-1,3.91-1c1.9,0,3.46.6,4.66,1.79,1.21,1.19,1.81,2.99,1.81,5.39v14.07h-4.08v-13.68c0-1.42-.39-2.45-1.16-3.09-.77-.64-1.7-.96-2.77-.96-1.33,0-2.36.41-3.1,1.22-.74.81-1.11,1.86-1.11,3.13v13.37h-4.07v-13.94c0-1.14-.36-2.05-1.07-2.75-.71-.69-1.63-1.04-2.77-1.04-.77,0-1.49.2-2.14.61s-1.17.97-1.57,1.69c-.4.72-.59,1.55-.59,2.5v12.93h-4.08Z"/>
    <path class="cls-2" d="M348.51,40.27v-20.98h3.92v3.41h.26c.44-1.16,1.15-2.06,2.14-2.71.99-.65,2.18-.98,3.56-.98s2.58.33,3.53.98c.95.66,1.65,1.56,2.11,2.7h.22c.5-1.12,1.3-2.01,2.39-2.68s2.39-1,3.91-1c1.9,0,3.46.6,4.66,1.79,1.21,1.19,1.81,2.99,1.81,5.39v14.07h-4.08v-13.68c0-1.42-.39-2.45-1.16-3.09-.77-.64-1.7-.96-2.77-.96-1.33,0-2.36.41-3.1,1.22-.74.81-1.11,1.86-1.11,3.13v13.37h-4.07v-13.94c0-1.14-.36-2.05-1.07-2.75-.71-.69-1.63-1.04-2.77-1.04-.77,0-1.49.2-2.14.61s-1.17.97-1.57,1.69c-.4.72-.59,1.55-.59,2.5v12.93h-4.08Z"/>
    <path class="cls-2" d="M396.54,31.57v-12.28h4.1v20.98h-4.01v-3.63h-.22c-.48,1.12-1.25,2.05-2.32,2.79-1.06.74-2.38,1.11-3.95,1.11-1.35,0-2.54-.3-3.57-.89s-1.84-1.48-2.43-2.66c-.59-1.18-.88-2.63-.88-4.36v-13.34h4.08v12.85c0,1.43.4,2.57,1.19,3.41.79.85,1.82,1.27,3.09,1.27.76,0,1.53-.19,2.29-.57s1.39-.96,1.9-1.73c.51-.77.75-1.76.74-2.95Z"/>
    <path class="cls-2" d="M410.97,27.82v12.45h-4.08v-20.98h3.92v3.41h.26c.48-1.11,1.24-2,2.27-2.68,1.03-.67,2.34-1.01,3.91-1.01,1.43,0,2.68.3,3.76.9,1.07.6,1.91,1.48,2.5,2.66.59,1.17.89,2.63.89,4.36v13.34h-4.08v-12.85c0-1.52-.4-2.71-1.19-3.57s-1.88-1.29-3.26-1.29c-.95,0-1.79.2-2.52.61-.73.41-1.31,1.01-1.73,1.8-.42.79-.64,1.74-.64,2.85Z"/>
    <path class="cls-2" d="M436.73,40.74c-1.33,0-2.53-.25-3.61-.74-1.07-.5-1.92-1.22-2.55-2.16-.62-.95-.93-2.11-.93-3.48,0-1.18.23-2.16.68-2.92s1.07-1.37,1.84-1.82c.77-.45,1.64-.78,2.59-1.01.96-.23,1.93-.4,2.92-.52,1.26-.15,2.28-.27,3.06-.36.78-.1,1.35-.25,1.71-.47.36-.22.53-.57.53-1.07v-.1c0-1.19-.33-2.12-1-2.77-.67-.66-1.66-.98-2.98-.98s-2.46.3-3.24.91-1.33,1.28-1.63,2.01l-3.84-.87c.45-1.27,1.12-2.31,2-3.09s1.89-1.36,3.04-1.72c1.15-.36,2.35-.54,3.62-.54.84,0,1.73.1,2.67.29.94.2,1.83.55,2.65,1.07.82.52,1.5,1.26,2.03,2.22.53.96.79,2.21.79,3.74v13.93h-3.99v-2.87h-.16c-.26.53-.66,1.05-1.19,1.56s-1.21.93-2.03,1.27c-.83.34-1.82.51-2.98.51ZM437.61,37.46c1.13,0,2.1-.22,2.9-.67.81-.45,1.42-1.03,1.84-1.75s.64-1.5.64-2.33v-2.7c-.15.15-.43.28-.84.4-.41.12-.89.23-1.41.31-.53.09-1.04.16-1.54.23-.5.07-.92.13-1.26.17-.79.1-1.51.27-2.16.51-.65.24-1.17.58-1.56,1.02-.39.44-.58,1.03-.58,1.76,0,1.01.37,1.77,1.12,2.29.75.51,1.7.77,2.85.77Z"/>
    <path class="cls-2" d="M466.57,31.57v-12.28h4.1v20.98h-4.01v-3.63h-.22c-.48,1.12-1.25,2.05-2.31,2.79-1.06.74-2.38,1.11-3.95,1.11-1.35,0-2.54-.3-3.57-.89s-1.84-1.48-2.43-2.66c-.59-1.18-.88-2.63-.88-4.36v-13.34h4.08v12.85c0,1.43.4,2.57,1.19,3.41s1.82,1.27,3.09,1.27c.76,0,1.53-.19,2.29-.57.76-.38,1.39-.96,1.9-1.73.51-.77.75-1.76.74-2.95Z"/>
    <path class="cls-2" d="M486.7,19.29v3.28h-11.46v-3.28h11.46ZM478.32,14.27h4.08v19.84c0,.79.12,1.39.36,1.78.24.4.54.66.92.81s.79.21,1.24.21c.33,0,.61-.02.86-.07.25-.05.44-.08.57-.11l.74,3.37c-.24.09-.57.18-1.01.28-.44.1-.98.15-1.64.16-1.07.02-2.08-.17-3-.57-.93-.4-1.68-1.02-2.25-1.86-.57-.84-.86-1.89-.86-3.16V14.27Z"/>
    <path class="cls-2" d="M500.8,40.7c-2.07,0-3.84-.44-5.33-1.33s-2.64-2.14-3.44-3.76-1.21-3.51-1.21-5.69.4-4.04,1.21-5.68,1.93-2.92,3.39-3.84c1.45-.92,3.15-1.38,5.1-1.38,1.18,0,2.33.2,3.44.59,1.11.39,2.11,1.01,2.99,1.84.88.84,1.58,1.92,2.09,3.26.51,1.33.76,2.95.76,4.85v1.45h-16.67v-3.06h12.67c0-1.07-.22-2.03-.65-2.86-.44-.83-1.05-1.49-1.84-1.97-.79-.48-1.71-.72-2.77-.72-1.15,0-2.15.28-3,.84s-1.51,1.29-1.97,2.19c-.46.9-.69,1.87-.69,2.91v2.39c0,1.4.25,2.59.74,3.58.5.98,1.19,1.73,2.08,2.25.89.51,1.93.77,3.13.77.77,0,1.48-.11,2.12-.33s1.19-.56,1.65-1c.47-.45.82-1,1.07-1.65l3.86.7c-.31,1.14-.86,2.13-1.66,2.98-.8.85-1.79,1.51-2.99,1.98-1.2.47-2.56.7-4.09.7ZM498.67,16.5l3.2-6.3h4.3l-4.23,6.3h-3.26Z"/>
    <path class="cls-2" d="M537.27,12.3h4.21v19.83c0,1.79-.35,3.33-1.06,4.6-.71,1.28-1.7,2.25-2.97,2.92s-2.77,1-4.48,1c-1.58,0-2.99-.29-4.24-.86-1.25-.57-2.24-1.41-2.96-2.51s-1.09-2.43-1.09-4.01h4.19c0,.77.18,1.44.54,2.01.36.57.86,1,1.49,1.32.63.31,1.36.47,2.18.47.89,0,1.65-.19,2.27-.57s1.1-.94,1.43-1.67c.33-.74.49-1.64.49-2.7V12.3Z"/>
    <path class="cls-2" d="M561.35,31.57v-12.28h4.1v20.98h-4.02v-3.63h-.22c-.48,1.12-1.26,2.05-2.32,2.79-1.06.74-2.38,1.11-3.95,1.11-1.35,0-2.54-.3-3.57-.89s-1.84-1.48-2.43-2.66c-.59-1.18-.88-2.63-.88-4.36v-13.34h4.08v12.85c0,1.43.4,2.57,1.19,3.41.79.85,1.82,1.27,3.09,1.27.76,0,1.53-.19,2.29-.57.76-.38,1.39-.96,1.9-1.73s.75-1.76.74-2.95Z"/>
    <path class="cls-2" d="M573.75,16.06c-.71,0-1.32-.24-1.82-.72-.5-.48-.76-1.05-.76-1.71s.25-1.25.76-1.73c.51-.48,1.11-.72,1.82-.72s1.32.24,1.82.72c.5.48.76,1.05.76,1.71s-.25,1.25-.76,1.73-1.11.72-1.82.72ZM571.69,40.27v-20.98h4.08v20.98h-4.08Z"/>
    <path class="cls-2" d="M599.98,19.29l-7.61,20.98h-4.37l-7.62-20.98h4.38l5.31,16.14h.22l5.3-16.14h4.38Z"/>
    <path class="cls-2" d="M612.89,40.7c-2.07,0-3.84-.44-5.33-1.33s-2.64-2.14-3.44-3.76-1.21-3.51-1.21-5.69.4-4.04,1.21-5.68,1.94-2.92,3.39-3.84c1.45-.92,3.15-1.38,5.1-1.38,1.18,0,2.33.2,3.44.59s2.11,1.01,2.99,1.84c.88.84,1.58,1.92,2.09,3.26.51,1.33.76,2.95.76,4.85v1.45h-16.67v-3.06h12.67c0-1.07-.22-2.03-.66-2.86-.44-.83-1.05-1.49-1.84-1.97-.79-.48-1.71-.72-2.77-.72-1.15,0-2.15.28-3,.84s-1.51,1.29-1.97,2.19c-.46.9-.69,1.87-.69,2.91v2.39c0,1.4.25,2.59.74,3.58.5.98,1.19,1.73,2.08,2.25.89.51,1.94.77,3.13.77.77,0,1.48-.11,2.12-.33s1.19-.56,1.65-1,.82-1,1.07-1.65l3.86.7c-.31,1.14-.86,2.13-1.66,2.98-.8.85-1.79,1.51-2.99,1.98-1.2.47-2.56.7-4.09.7Z"/>
    <path class="cls-2" d="M268.63,86.83c-1.69,0-3.2-.43-4.53-1.3-1.32-.87-2.36-2.11-3.11-3.73-.75-1.62-1.13-3.56-1.13-5.82s.38-4.21,1.14-5.82c.76-1.61,1.8-2.84,3.13-3.7,1.33-.86,2.84-1.28,4.52-1.28,1.3,0,2.35.22,3.15.65s1.42.94,1.86,1.51.79,1.08,1.03,1.52h.25v-10.39h4.08v27.97h-3.99v-3.26h-.34c-.25.45-.6.96-1.06,1.53-.46.57-1.09,1.07-1.89,1.5-.8.43-1.84.64-3.11.64ZM269.53,83.35c1.17,0,2.17-.31,2.98-.94.81-.62,1.43-1.49,1.86-2.6.42-1.11.63-2.4.63-3.88s-.21-2.73-.63-3.82-1.03-1.94-1.84-2.55-1.81-.92-3-.92-2.25.32-3.07.96-1.44,1.51-1.85,2.61c-.41,1.1-.62,2.34-.62,3.73s.21,2.66.63,3.78,1.04,2.01,1.86,2.66c.82.65,1.84.98,3.05.98Z"/>
    <path class="cls-2" d="M294.65,86.84c-2.07,0-3.84-.44-5.33-1.33-1.49-.89-2.64-2.14-3.44-3.76-.81-1.62-1.21-3.51-1.21-5.69s.4-4.04,1.21-5.68c.81-1.64,1.93-2.92,3.39-3.84s3.15-1.38,5.1-1.38c1.18,0,2.33.2,3.44.59,1.11.39,2.11,1.01,2.99,1.84.88.84,1.58,1.92,2.09,3.26.51,1.33.76,2.95.76,4.85v1.45h-16.67v-3.06h12.67c0-1.07-.22-2.03-.66-2.86-.44-.83-1.05-1.49-1.84-1.97s-1.71-.72-2.77-.72c-1.15,0-2.15.28-3,.84-.85.56-1.51,1.29-1.97,2.19-.46.9-.69,1.87-.69,2.91v2.39c0,1.4.25,2.6.74,3.58s1.19,1.73,2.08,2.25,1.93.77,3.13.77c.77,0,1.48-.11,2.12-.33.64-.22,1.19-.56,1.65-1,.46-.45.82-1,1.07-1.65l3.86.7c-.31,1.14-.86,2.13-1.66,2.98-.8.85-1.79,1.51-2.99,1.98-1.2.47-2.56.7-4.09.7Z"/>
    <path class="cls-2" d="M343.48,67.55h-4.26c-.16-.91-.47-1.71-.91-2.4-.45-.69-.99-1.28-1.64-1.76-.65-.48-1.37-.85-2.16-1.09-.8-.25-1.64-.37-2.53-.37-1.61,0-3.05.4-4.32,1.22s-2.27,2-3,3.56c-.73,1.57-1.1,3.48-1.1,5.74s.37,4.2,1.1,5.76c.73,1.57,1.74,2.75,3.01,3.55,1.27.8,2.71,1.2,4.3,1.2.88,0,1.72-.12,2.52-.36s1.52-.6,2.16-1.07c.65-.47,1.19-1.05,1.65-1.74.45-.69.76-1.48.94-2.37h4.26c-.23,1.39-.67,2.65-1.32,3.8-.65,1.15-1.48,2.14-2.5,2.98-1.02.83-2.17,1.48-3.48,1.93-1.3.46-2.72.68-4.26.68-2.42,0-4.58-.57-6.47-1.73s-3.38-2.8-4.47-4.95c-1.09-2.15-1.63-4.71-1.63-7.69s.55-5.55,1.64-7.69c1.09-2.14,2.59-3.79,4.48-4.94,1.89-1.15,4.05-1.73,6.46-1.73,1.48,0,2.87.21,4.16.64,1.29.42,2.45,1.04,3.48,1.86,1.03.82,1.88,1.81,2.55,2.98s1.13,2.51,1.37,4.01Z"/>
    <path class="cls-2" d="M353.06,58.45v27.97h-4.08v-27.97h4.08Z"/>
    <path class="cls-2" d="M368.36,86.84c-2.07,0-3.84-.44-5.33-1.33-1.49-.89-2.64-2.14-3.44-3.76-.81-1.62-1.21-3.51-1.21-5.69s.4-4.04,1.21-5.68c.81-1.64,1.93-2.92,3.39-3.84s3.15-1.38,5.1-1.38c1.18,0,2.33.2,3.44.59,1.11.39,2.11,1.01,2.99,1.84.88.84,1.58,1.92,2.09,3.26.51,1.33.76,2.95.76,4.85v1.45h-16.67v-3.06h12.67c0-1.07-.22-2.03-.66-2.86-.44-.83-1.05-1.49-1.84-1.97s-1.71-.72-2.77-.72c-1.15,0-2.15.28-3,.84-.85.56-1.51,1.29-1.97,2.19-.46.9-.69,1.87-.69,2.91v2.39c0,1.4.25,2.6.74,3.58s1.19,1.73,2.08,2.25,1.93.77,3.13.77c.77,0,1.48-.11,2.12-.33.64-.22,1.19-.56,1.65-1,.46-.45.82-1,1.07-1.65l3.86.7c-.31,1.14-.86,2.13-1.66,2.98-.8.85-1.79,1.51-2.99,1.98-1.2.47-2.56.7-4.09.7Z"/>
    <path class="cls-2" d="M382.67,86.42v-20.98h3.95v3.33h.22c.38-1.13,1.06-2.02,2.03-2.67.97-.65,2.07-.98,3.3-.98.25,0,.56,0,.91.03.35.02.63.04.83.07v3.91c-.16-.05-.46-.1-.87-.16-.42-.06-.84-.09-1.26-.09-.97,0-1.82.2-2.57.61s-1.35.97-1.78,1.68c-.44.72-.66,1.53-.66,2.44v12.81h-4.08Z"/>
    <path class="cls-2" d="M398.22,86.42v-20.98h3.92v3.41h.26c.44-1.16,1.15-2.06,2.14-2.71s2.18-.98,3.56-.98,2.58.33,3.53.98,1.65,1.56,2.11,2.7h.22c.5-1.12,1.3-2.01,2.39-2.68,1.09-.67,2.39-1,3.91-1,1.9,0,3.46.6,4.66,1.79,1.21,1.19,1.81,2.99,1.81,5.39v14.07h-4.08v-13.68c0-1.42-.39-2.45-1.16-3.09-.77-.64-1.7-.96-2.77-.96-1.33,0-2.36.41-3.1,1.22s-1.11,1.86-1.11,3.13v13.37h-4.07v-13.94c0-1.14-.36-2.05-1.07-2.74-.71-.69-1.63-1.04-2.77-1.04-.77,0-1.49.2-2.14.61-.65.4-1.17.97-1.57,1.69-.4.72-.59,1.55-.59,2.5v12.93h-4.08Z"/>
    <path class="cls-2" d="M441.8,86.84c-1.97,0-3.68-.45-5.15-1.35-1.47-.9-2.6-2.16-3.41-3.78-.81-1.62-1.22-3.51-1.22-5.68s.4-4.08,1.22-5.71,1.95-2.89,3.41-3.8c1.47-.9,3.18-1.35,5.15-1.35s3.68.45,5.15,1.35c1.47.9,2.6,2.17,3.41,3.8s1.22,3.53,1.22,5.71-.41,4.06-1.22,5.68c-.81,1.62-1.95,2.88-3.41,3.78-1.47.9-3.18,1.35-5.15,1.35ZM441.81,83.41c1.27,0,2.33-.34,3.17-1.01.84-.67,1.46-1.57,1.86-2.69s.61-2.35.61-3.7-.2-2.57-.61-3.69-1.03-2.03-1.86-2.71c-.84-.68-1.89-1.02-3.17-1.02s-2.35.34-3.19,1.02c-.84.68-1.47,1.59-1.87,2.71s-.61,2.35-.61,3.69.2,2.58.61,3.7,1.03,2.02,1.87,2.69c.84.67,1.9,1.01,3.19,1.01Z"/>
    <path class="cls-2" d="M460.98,73.96v12.45h-4.08v-20.98h3.92v3.41h.26c.48-1.11,1.24-2,2.27-2.68s2.34-1.01,3.91-1.01c1.43,0,2.68.3,3.76.89,1.07.6,1.91,1.48,2.5,2.66s.89,2.63.89,4.36v13.34h-4.08v-12.85c0-1.52-.4-2.71-1.19-3.57-.79-.86-1.88-1.29-3.26-1.29-.95,0-1.79.21-2.52.61-.73.41-1.31,1.01-1.73,1.8-.42.79-.64,1.74-.64,2.85Z"/>
    <path class="cls-2" d="M490.42,65.44v3.28h-11.46v-3.28h11.46ZM482.04,60.42h4.08v19.84c0,.79.12,1.39.36,1.78.24.4.54.66.92.81.38.14.79.21,1.24.21.33,0,.61-.02.86-.07.25-.05.44-.08.57-.11l.74,3.37c-.24.09-.57.18-1.01.28-.44.1-.98.15-1.64.16-1.07.02-2.08-.17-3-.57-.93-.4-1.68-1.02-2.25-1.86-.57-.84-.86-1.89-.86-3.15v-20.69Z"/>
    <path class="cls-2" d="M507.34,72.83v3.54h-12.4v-3.54h12.4Z"/>
    <path class="cls-2" d="M513.88,86.42v-27.97h17.34v3.63h-13.12v8.52h11.88v3.62h-11.88v12.19h-4.22Z"/>
    <path class="cls-2" d="M544.37,86.84c-2.07,0-3.84-.44-5.33-1.33-1.49-.89-2.64-2.14-3.44-3.76-.81-1.62-1.21-3.51-1.21-5.69s.4-4.04,1.21-5.68c.81-1.64,1.93-2.92,3.39-3.84,1.45-.92,3.15-1.38,5.1-1.38,1.18,0,2.33.2,3.44.59,1.11.39,2.11,1.01,2.99,1.84.88.84,1.58,1.92,2.09,3.26.51,1.33.76,2.95.76,4.85v1.45h-16.67v-3.06h12.67c0-1.07-.22-2.03-.65-2.86-.44-.83-1.05-1.49-1.84-1.97-.79-.48-1.71-.72-2.77-.72-1.15,0-2.15.28-3,.84-.85.56-1.51,1.29-1.97,2.19-.46.9-.69,1.87-.69,2.91v2.39c0,1.4.25,2.6.74,3.58s1.19,1.73,2.08,2.25,1.93.77,3.13.77c.77,0,1.48-.11,2.12-.33.64-.22,1.19-.56,1.65-1,.47-.45.82-1,1.07-1.65l3.86.7c-.31,1.14-.86,2.13-1.66,2.98s-1.79,1.51-2.99,1.98c-1.2.47-2.56.7-4.09.7Z"/>
    <path class="cls-2" d="M558.68,86.42v-20.98h3.95v3.33h.22c.38-1.13,1.06-2.02,2.03-2.67.97-.65,2.07-.98,3.3-.98.25,0,.56,0,.91.03.35.02.63.04.83.07v3.91c-.16-.05-.46-.1-.87-.16-.42-.06-.84-.09-1.26-.09-.97,0-1.82.2-2.57.61s-1.34.97-1.78,1.68c-.44.72-.66,1.53-.66,2.44v12.81h-4.08Z"/>
    <path class="cls-2" d="M574.23,86.42v-20.98h3.95v3.33h.22c.38-1.13,1.06-2.02,2.03-2.67s2.07-.98,3.3-.98c.25,0,.56,0,.91.03.35.02.63.04.83.07v3.91c-.16-.05-.46-.1-.87-.16-.42-.06-.84-.09-1.26-.09-.97,0-1.82.2-2.57.61s-1.35.97-1.78,1.68c-.44.72-.66,1.53-.66,2.44v12.81h-4.08Z"/>
    <path class="cls-2" d="M595.69,86.88c-1.33,0-2.53-.25-3.61-.74s-1.92-1.22-2.55-2.16c-.62-.95-.93-2.11-.93-3.48,0-1.18.23-2.16.68-2.92s1.07-1.37,1.84-1.82c.77-.45,1.64-.78,2.59-1.01.96-.23,1.93-.4,2.92-.52,1.26-.15,2.28-.27,3.06-.36.78-.1,1.35-.25,1.71-.47.36-.22.53-.57.53-1.07v-.1c0-1.19-.33-2.12-1-2.77-.67-.66-1.66-.98-2.98-.98s-2.46.3-3.24.91-1.33,1.28-1.63,2.01l-3.84-.87c.45-1.27,1.12-2.31,2-3.09.88-.79,1.89-1.36,3.04-1.72s2.35-.54,3.62-.54c.84,0,1.73.1,2.67.29.94.2,1.83.55,2.65,1.07s1.5,1.26,2.03,2.22c.53.96.79,2.21.79,3.74v13.93h-3.99v-2.87h-.16c-.26.53-.66,1.05-1.19,1.56s-1.21.93-2.03,1.27c-.83.34-1.82.5-2.98.5ZM596.57,83.6c1.13,0,2.1-.22,2.9-.67.81-.45,1.42-1.03,1.84-1.75s.64-1.5.64-2.33v-2.7c-.15.15-.43.28-.84.4-.41.12-.89.23-1.41.32-.53.09-1.04.16-1.54.23-.5.07-.92.13-1.26.17-.79.1-1.51.27-2.16.5s-1.17.58-1.56,1.02c-.39.44-.58,1.03-.58,1.76,0,1.01.37,1.77,1.12,2.29.75.51,1.7.77,2.85.77Z"/>
    <path class="cls-2" d="M616.33,73.96v12.45h-4.08v-20.98h3.92v3.41h.26c.48-1.11,1.24-2,2.27-2.68s2.34-1.01,3.91-1.01c1.43,0,2.68.3,3.76.89,1.07.6,1.91,1.48,2.5,2.66s.89,2.63.89,4.36v13.34h-4.08v-12.85c0-1.52-.4-2.71-1.19-3.57-.79-.86-1.88-1.29-3.26-1.29-.95,0-1.79.21-2.52.61-.73.41-1.31,1.01-1.73,1.8-.42.79-.64,1.74-.64,2.85Z"/>
    <path class="cls-2" d="M643.83,86.83c-1.69,0-3.2-.43-4.53-1.3-1.32-.87-2.36-2.11-3.11-3.73-.75-1.62-1.13-3.56-1.13-5.82s.38-4.21,1.14-5.82c.76-1.61,1.8-2.84,3.13-3.7,1.33-.86,2.84-1.28,4.52-1.28,1.3,0,2.35.22,3.15.65s1.42.94,1.86,1.51.79,1.08,1.03,1.52h.25v-10.39h4.08v27.97h-3.99v-3.26h-.34c-.25.45-.6.96-1.06,1.53-.46.57-1.09,1.07-1.89,1.5-.8.43-1.84.64-3.11.64ZM644.73,83.35c1.17,0,2.17-.31,2.98-.94.81-.62,1.43-1.49,1.86-2.6.42-1.11.63-2.4.63-3.88s-.21-2.73-.63-3.82c-.42-1.09-1.03-1.94-1.84-2.55s-1.81-.92-3-.92-2.25.32-3.07.96-1.44,1.51-1.85,2.61c-.41,1.1-.62,2.34-.62,3.73s.21,2.66.63,3.78c.42,1.12,1.04,2.01,1.86,2.66.82.65,1.84.98,3.05.98Z"/>
  </g>
</svg>