<?xml version="1.0" encoding="UTF-8"?>
<svg id="Repères" xmlns="http://www.w3.org/2000/svg" version="1.1" viewBox="0 0 226.6 86.9">
  <!-- Generator: Adobe Illustrator 30.2.1, SVG Export Plug-In . SVG Version: 2.1.1 Build 1)  -->
  <defs>
    <style>
      .st0 {
        fill: #bda05e;
      }

      .st1 {
        fill: #fff;
      }
    </style>
  </defs>
  <path class="st0" d="M80.7,0v41.1c-1.4,16.3-15.2,30-34.1,35.5V0h34.1Z"/>
  <path class="st1" d="M34.2,10.2h0v76.6C15.7,81.4,1.5,67.8.1,51.4c0-.9-.1-1.9-.1-2.8s0-1.9.1-2.8C1.5,29.5,15.7,15.7,34.2,10.2"/>
  <path class="st1" d="M127.3,10.2h0v76.6c-18.5-5.5-32.7-19.1-34.1-35.4v-5.6c1.4-16.4,15.6-30.1,34.1-35.6"/>
  <polygon class="st1" points="177.5 10.2 177.5 48.6 159.4 48.6 159.4 86.9 139.6 86.9 139.6 10.2 177.5 10.2"/>
  <polygon class="st1" points="226.6 29.3 226.6 67.8 206.7 67.8 206.7 86.9 186.9 86.9 186.9 10.2 206.7 10.2 206.7 29.3 226.6 29.3"/>
  <path class="st0" d="M93.1,78.1c0-4.8-3.9-8.8-8.8-8.8s-8.8,3.9-8.8,8.8,3.9,8.8,8.8,8.8,8.8-3.9,8.8-8.8"/>
</svg>