<?xml version="1.0" encoding="UTF-8"?>
<svg id="Calque_1" xmlns="http://www.w3.org/2000/svg" version="1.1" viewBox="0 0 21.5 21.5">
  <!-- Generator: Adobe Illustrator 30.2.1, SVG Export Plug-In . SVG Version: 2.1.1 Build 1)  -->
  <defs>
    <style>
      .st0 {
        fill: #fff;
      }
    </style>
  </defs>
  <path class="st0" d="M10.8,21.5c5.9,0,10.8-4.8,10.8-10.8S16.7,0,10.8,0,0,4.8,0,10.8s4.8,10.7,10.8,10.8h0ZM10.8,1.5c5.1,0,9.2,4.1,9.2,9.2s-4.1,9.2-9.2,9.2S1.5,15.9,1.5,10.8,5.6,1.6,10.7,1.6h.1Z"/>
  <path class="st0" d="M14.2,15.3c.3.3.8.3,1.1,0s.3-.7,0-1l-3.8-3.8v-4.7c0-.4-.3-.8-.8-.8s-.8.3-.8.8v5c0,.2,0,.4.2.5l4,4h.1Z"/>
</svg>